<svg xmlns="http://www.w3.org/2000/svg" viewBox="0 0 522 661">
  <rect width="522" height="661" fill="#0a0a0a"/>
  <g fill="#B89559" fill-rule="evenodd">
    <path d="M 472.17 548.09 L 468.33 548.67 L 112.67 548.84 L 108.99 548.17 L 108.87 547.33 L 109.50 546.60 L 117.63 542.33 L 123.18 538.50 L 131.33 530.35 L 135.17 524.71 L 138.67 517.32 L 140.17 512.87 L 143.33 497.03 L 144.17 485.36 L 144.74 458.83 L 144.54 403.83 L 144.83 402.17 L 146.00 401.54 L 147.17 401.74 L 159.25 409.33 L 199.17 431.59 L 202.31 434.17 L 203.06 436.17 L 203.19 460.67 L 203.99 480.00 L 205.50 494.59 L 206.50 499.08 L 210.67 510.75 L 214.67 516.67 L 218.04 520.17 L 221.67 523.07 L 227.33 526.33 L 236.67 529.34 L 243.50 530.39 L 253.83 531.12 L 310.83 532.03 L 312.17 531.44 L 312.37 529.33 L 310.38 511.67 L 309.17 506.44 L 306.17 496.83 L 302.16 487.67 L 297.20 478.83 L 289.33 468.00 L 277.00 454.67 L 263.87 443.50 L 244.76 430.50 L 230.23 421.67 L 199.33 404.15 L 120.50 358.12 L 100.00 345.12 L 78.00 329.26 L 62.67 315.91 L 48.59 300.83 L 41.07 290.83 L 36.59 283.50 L 31.77 274.50 L 28.42 266.83 L 23.53 251.50 L 21.72 241.50 L 20.69 233.17 L 20.45 218.33 L 20.77 212.50 L 23.56 193.67 L 27.62 180.00 L 32.60 167.83 L 39.87 155.00 L 49.62 141.83 L 58.60 132.00 L 70.00 121.46 L 82.17 112.55 L 91.67 106.82 L 104.00 100.74 L 116.33 95.75 L 118.83 95.29 L 119.81 96.00 L 120.22 97.33 L 121.05 110.83 L 120.65 112.17 L 102.95 123.67 L 98.26 127.50 L 89.67 135.95 L 80.50 147.31 L 77.00 152.74 L 72.67 161.33 L 68.33 173.95 L 66.50 184.10 L 65.93 194.17 L 66.50 204.44 L 68.33 214.50 L 72.50 226.01 L 76.67 234.03 L 80.50 240.03 L 89.50 251.18 L 97.59 259.17 L 113.78 272.33 L 130.83 284.33 L 140.83 290.70 L 143.83 293.34 L 144.63 293.17 L 144.87 146.83 L 144.31 90.83 L 143.33 73.50 L 139.34 53.00 L 136.17 45.44 L 130.33 36.76 L 126.47 32.67 L 118.97 27.50 L 110.17 22.94 L 109.46 21.67 L 109.83 20.77 L 132.17 20.39 L 247.50 20.54 L 248.14 21.33 L 247.50 22.38 L 235.81 27.50 L 227.59 32.67 L 218.53 40.67 L 213.50 46.63 L 210.50 51.61 L 206.49 64.33 L 205.31 72.33 L 204.00 88.00 L 204.29 90.50 L 223.83 95.58 L 239.00 100.26 L 250.00 104.29 L 276.00 115.18 L 286.50 118.41 L 293.83 119.16 L 298.83 119.21 L 304.52 118.50 L 314.21 114.50 L 319.33 110.33 L 322.33 106.83 L 326.83 99.33 L 327.50 98.91 L 328.17 99.26 L 328.94 136.33 L 329.16 233.50 L 328.92 234.50 L 328.17 234.93 L 326.72 233.83 L 322.47 216.67 L 318.33 204.32 L 310.33 185.49 L 305.67 176.64 L 297.29 163.83 L 284.27 148.67 L 276.00 140.57 L 264.64 131.50 L 252.17 123.37 L 243.33 118.55 L 234.84 114.50 L 224.78 110.50 L 211.64 106.50 L 204.67 105.00 L 203.88 105.33 L 203.36 127.83 L 203.33 326.42 L 204.89 328.00 L 237.17 345.47 L 257.17 356.77 L 278.33 369.61 L 297.83 382.52 L 308.83 390.42 L 319.54 399.50 L 328.48 408.33 L 337.94 419.17 L 346.22 431.33 L 353.24 445.50 L 358.43 458.67 L 362.63 474.33 L 363.96 482.17 L 364.95 499.17 L 363.97 514.17 L 361.00 530.81 L 361.53 531.67 L 386.11 530.33 L 416.80 526.17 L 431.98 521.33 L 441.05 517.33 L 448.33 513.46 L 460.00 505.33 L 468.17 498.30 L 476.33 490.22 L 484.50 480.39 L 493.35 467.50 L 499.57 457.00 L 500.83 456.06 L 501.83 456.09 L 502.09 457.50 L 500.29 463.67 L 497.50 470.64 L 490.89 492.33 L 485.89 506.83 L 483.96 514.50 L 474.42 544.33 Z M 340.13 574.50 L 337.16 578.83 L 329.26 588.17 L 319.33 598.16 L 308.83 607.15 L 296.00 616.11 L 281.50 623.90 L 269.50 629.12 L 257.33 633.25 L 240.33 637.20 L 220.50 639.75 L 202.17 640.56 L 179.50 639.61 L 160.50 637.29 L 142.33 632.95 L 128.67 629.12 L 93.17 617.40 L 78.17 613.38 L 58.00 609.31 L 49.78 609.50 L 45.49 610.67 L 39.00 613.50 L 33.94 617.67 L 31.33 620.66 L 28.00 626.52 L 26.33 627.25 L 25.64 626.33 L 25.76 491.83 L 26.67 490.35 L 27.50 490.30 L 28.07 490.83 L 31.33 505.64 L 34.49 516.50 L 39.33 530.46 L 43.50 540.27 L 51.50 555.43 L 60.45 568.00 L 67.54 576.17 L 76.64 585.00 L 85.49 592.33 L 97.29 600.50 L 105.08 605.17 L 120.97 613.33 L 131.11 617.33 L 143.77 621.33 L 161.72 625.33 L 169.00 626.32 L 189.67 627.82 L 198.00 627.80 L 218.00 626.33 L 228.45 624.50 L 240.64 621.33 L 251.43 617.33 L 259.67 613.38 L 272.45 605.17 L 281.36 597.33 L 288.33 590.14 L 293.33 584.09 L 300.00 573.70 L 301.17 572.77 L 338.17 572.48 L 339.83 573.07 Z"/>
  </g>
</svg>
